<svg version="1.1" id="Layer_1" xmlns="http://www.w3.org/2000/svg" xmlns:xlink="http://www.w3.org/1999/xlink" x="0px" y="0px"
	 width="100%" viewBox="0 0 368 384" enable-background="new 0 0 368 384" xml:space="preserve">
<path fill="#000000" opacity="1.000000" stroke="none" 
	d="
M185.686768,204.077728 
	C190.369965,197.316422 191.273682,189.935211 191.707138,182.404861 
	C191.974472,177.760590 192.446457,173.128006 192.707809,168.483505 
	C192.821716,166.459366 193.577560,164.980682 195.376740,164.042923 
	C207.178146,157.891968 218.973770,151.729858 230.791046,145.609528 
	C231.476135,145.254730 232.333984,145.233459 232.972610,145.088470 
	C234.537445,146.555527 233.991592,148.074326 233.688599,149.482574 
	C230.541077,164.111359 227.424683,178.747650 224.115112,193.340012 
	C223.558746,195.793030 223.751297,197.921646 224.751816,200.082993 
	C232.155487,216.076675 239.550827,232.074280 246.999496,248.046997 
	C249.150833,252.660263 248.847443,253.393875 244.021088,254.373291 
	C229.701981,257.279144 215.366623,260.111023 201.084610,263.189819 
	C197.005020,264.069244 194.920029,263.166473 194.158844,258.829712 
	C191.200195,241.973053 188.045090,225.150909 184.970459,208.314590 
	C184.725052,206.970840 184.859329,205.661880 185.686768,204.077728 
z"/>
<path fill="#000000" opacity="1.000000" stroke="none" 
	d="
M257.333862,93.291817 
	C249.578842,108.438736 241.898392,123.210663 234.368134,138.058762 
	C233.141312,140.477783 231.523788,141.919006 229.001755,142.815979 
	C216.782547,147.161819 204.573502,151.541733 192.439224,156.117447 
	C188.803925,157.488297 188.040482,155.930542 187.784164,152.842331 
	C186.849274,141.578583 185.852875,130.319794 184.835709,119.063118 
	C184.487976,115.214920 184.877441,112.233871 188.993500,109.991364 
	C214.575241,96.053894 239.991959,81.813660 265.487366,67.717194 
	C266.872284,66.951469 268.198730,65.700813 271.107452,66.511597 
	C266.487732,75.457474 261.973083,84.199829 257.333862,93.291817 
z"/>
<path fill="#000000" opacity="1.000000" stroke="none" 
	d="
M169.541214,112.462151 
	C177.272491,117.269859 180.631454,123.535034 179.311111,132.581650 
	C178.502518,138.121841 179.063385,143.873901 179.151382,149.528580 
	C179.206329,153.059448 177.679352,153.871948 174.474213,152.932205 
	C158.530548,148.257446 142.568939,143.643616 126.604843,139.038940 
	C123.840034,138.241425 122.262390,136.823990 122.925880,133.659714 
	C126.230789,117.898216 129.477158,102.124435 132.787888,86.364174 
	C133.017273,85.272240 133.602493,84.255058 134.548080,81.885231 
	C146.469131,92.306465 157.868179,102.271362 169.541214,112.462151 
z"/>
<path fill="#000000" opacity="1.000000" stroke="none" 
	d="
M278.971252,208.239380 
	C261.858856,205.507660 245.183548,202.816757 227.367432,199.941757 
	C230.693741,193.384995 234.171005,188.089401 238.424988,183.334900 
	C239.099045,182.581528 240.931351,182.695190 242.228516,182.693588 
	C269.007538,182.660339 295.786591,182.665710 322.565643,182.677048 
	C323.868835,182.677597 325.234497,182.516861 326.945282,183.930237 
	C323.891602,190.835373 320.778870,197.901474 317.637909,204.954987 
	C316.961914,206.473083 316.036041,207.893234 315.482971,209.450058 
	C314.232605,212.969543 311.850861,213.657593 308.394775,213.045715 
	C298.753601,211.338745 289.073212,209.853165 278.971252,208.239380 
z"/>
<path fill="#000000" opacity="1.000000" stroke="none" 
	d="
M89.631638,248.721176 
	C92.494637,244.377457 91.865685,241.437805 87.348816,239.193680 
	C85.569305,238.309570 83.418213,237.354279 82.671974,234.578278 
	C88.381554,232.511337 94.352928,232.242828 100.131927,231.205017 
	C111.588791,229.147568 123.122513,227.517944 134.578812,225.457611 
	C138.007446,224.840988 139.611374,225.830490 140.146652,229.161560 
	C140.856018,233.576172 141.496994,238.017532 142.543228,242.356781 
	C143.254944,245.308594 142.336639,246.983047 139.899048,248.551849 
	C118.474091,262.340454 97.105392,276.216461 75.708420,290.048615 
	C75.051750,290.473083 74.268753,290.702179 73.544655,291.022369 
	C73.091095,290.774628 72.637543,290.526917 72.183983,290.279175 
	C77.956879,276.545013 83.729782,262.810852 89.631638,248.721176 
z"/>
<path fill="#000000" opacity="1.000000" stroke="none" 
	d="
M174.944885,331.878876 
	C171.904205,335.764343 170.573257,340.468719 166.837845,343.325623 
	C164.308792,342.508118 164.439423,340.326843 164.098602,338.714020 
	C161.005859,324.078430 158.562286,309.328369 156.495728,294.511414 
	C156.171204,292.184540 156.524124,290.254303 157.794174,288.386932 
	C165.373276,277.243164 172.942581,266.092743 180.546509,254.965927 
	C180.992722,254.312988 181.711899,253.846573 182.149475,253.437759 
	C184.169022,253.454758 184.560043,254.849518 185.081223,256.031830 
	C189.709442,266.530975 194.262878,277.063477 198.960175,287.531464 
	C200.160980,290.207458 200.096115,292.311768 198.405182,294.910858 
	C190.512756,307.042267 182.872757,319.337860 174.944885,331.878876 
z"/>
<path fill="#000000" opacity="1.000000" stroke="none" 
	d="
M181.554993,198.502899 
	C179.294342,203.835403 175.955933,203.973557 170.736588,203.448410 
	C160.587891,202.427307 154.532486,197.446854 149.285431,189.088959 
	C140.808121,175.585739 131.166931,162.813766 122.041222,149.716263 
	C121.131310,148.410355 119.646072,147.321213 120.100792,145.139023 
	C124.021675,144.179382 127.514153,146.296204 131.056442,147.179062 
	C146.044098,150.914444 160.896378,155.190460 175.866699,158.999466 
	C179.687866,159.971725 181.477417,161.994766 182.013062,165.702225 
	C183.057678,172.932983 183.928314,180.209503 185.451599,187.343109 
	C186.443695,191.989075 183.793304,194.865936 181.554993,198.502899 
z"/>
<path fill="#000000" opacity="1.000000" stroke="none" 
	d="
M181.590240,209.412155 
	C182.967819,217.850967 184.221237,225.887589 185.522934,233.916351 
	C185.936966,236.470093 185.829102,238.938049 184.271805,241.077408 
	C175.655624,252.914017 166.998917,264.721161 158.341949,276.528015 
	C157.843994,277.207184 157.188980,277.731934 155.754211,277.521057 
	C153.696426,272.684326 153.694656,267.161865 152.742935,261.885193 
	C150.945892,251.921768 149.546844,241.886932 147.947144,231.887421 
	C146.429413,222.400269 152.052811,215.040375 155.348831,206.995209 
	C155.844116,205.786301 157.217377,205.723892 158.403625,205.721512 
	C164.895294,205.708481 171.387131,205.733826 177.878662,205.699463 
	C180.161835,205.687363 181.167068,206.940765 181.590240,209.412155 
z"/>
<path fill="#000000" opacity="1.000000" stroke="none" 
	d="
M279.720520,176.954620 
	C267.305939,177.763245 255.357925,178.468399 243.422485,179.344925 
	C239.416855,179.639099 237.954269,178.301056 237.709167,174.090851 
	C237.310425,167.241898 238.838608,162.020645 245.018524,158.047363 
	C251.715866,153.741394 257.850769,148.557770 264.204895,143.722656 
	C266.046234,142.321518 267.752686,141.409790 270.001556,143.110367 
	C283.008209,152.945892 296.066711,162.712845 309.084900,172.533157 
	C309.419647,172.785706 309.493347,173.384308 309.971802,174.454514 
	C299.932343,176.126556 289.990875,175.836487 279.720520,176.954620 
z"/>
<path fill="#000000" opacity="1.000000" stroke="none" 
	d="
M107.367340,177.894104 
	C95.962814,176.968872 85.024986,175.854919 74.060188,175.418259 
	C69.110054,175.221100 66.807755,173.837341 66.618881,168.595047 
	C66.434433,163.475693 65.496651,158.357483 64.559906,153.299835 
	C63.873135,149.591827 65.229805,148.400864 68.743477,148.725830 
	C77.518082,149.537384 86.302681,150.240845 95.077339,151.051834 
	C100.207779,151.526001 105.321243,152.188110 110.453949,152.631393 
	C112.339775,152.794266 114.114777,152.889374 115.247581,154.691589 
	C119.854950,162.021652 124.484535,169.337845 129.052658,176.692245 
	C129.355469,177.179733 129.214539,177.942841 129.332031,179.082550 
	C121.960762,179.722336 114.919647,177.897415 107.367340,177.894104 
z"/>
<path fill="#000000" opacity="1.000000" stroke="none" 
	d="
M106.894424,210.985916 
	C103.976357,197.717743 113.877319,191.513870 120.667801,183.730484 
	C121.054276,183.287476 121.896614,182.877548 122.425575,182.979156 
	C128.610779,184.167236 134.815674,185.295441 140.932190,186.781708 
	C144.377701,187.618927 144.787506,191.603119 147.010696,193.709778 
	C155.284607,201.550095 150.419113,209.359589 147.231201,217.223969 
	C146.665741,218.618927 145.627991,219.195526 144.194916,219.428177 
	C133.209198,221.211853 122.168617,222.423370 111.034706,222.658737 
	C107.875534,222.725525 106.568649,221.110291 106.829895,217.957626 
	C107.007858,215.809998 106.887917,213.637711 106.894424,210.985916 
z"/>
<path fill="#000000" opacity="1.000000" stroke="none" 
	d="
M310.578491,221.723099 
	C293.936279,229.719513 277.563110,237.436325 261.353088,245.481750 
	C257.277283,247.504654 255.647186,246.470108 253.827515,242.650864 
	C249.974274,234.563431 245.595428,226.726685 241.444794,218.780518 
	C240.616959,217.195633 239.306900,215.794601 239.511826,212.388474 
	C264.990509,214.068741 290.425964,215.746155 316.871674,217.490204 
	C314.845795,220.255219 312.712891,220.673523 310.578491,221.723099 
z"/>
<path fill="#000000" opacity="1.000000" stroke="none" 
	d="
M67.744766,191.378342 
	C60.849129,190.677094 54.408646,189.994537 47.965927,189.333801 
	C46.772064,189.211365 45.528175,189.029022 44.891823,187.954147 
	C42.382637,183.715866 39.259838,179.814178 37.493622,175.419174 
	C38.224094,174.096695 39.072845,174.182388 39.844894,174.520676 
	C53.658039,180.572968 68.557571,179.024002 82.992813,180.711365 
	C90.998436,181.647156 99.143402,181.398621 107.189827,183.188522 
	C102.792175,191.629196 97.748238,194.378403 89.039864,193.457123 
	C82.098274,192.722748 75.146439,192.085129 67.744766,191.378342 
z"/>
<path fill="#000000" opacity="1.000000" stroke="none" 
	d="
M242.206512,137.465378 
	C243.387451,133.573090 245.451950,131.125687 248.915237,129.494461 
	C267.265808,120.851242 285.534515,112.034271 303.834473,103.283501 
	C304.581451,102.926315 305.353912,102.591980 307.502533,103.834259 
	C284.624146,120.736649 262.229950,137.281296 238.759445,154.621124 
	C238.003876,147.438980 241.093582,142.841599 242.206512,137.465378 
z"/>
<path fill="#000000" opacity="1.000000" stroke="none" 
	d="
M233.357742,264.325195 
	C237.740067,270.164246 241.671494,275.834015 244.848419,281.644653 
	C243.743240,283.486053 242.502441,283.179688 241.397049,283.046906 
	C232.496002,281.977203 223.621216,280.260162 214.695984,279.946106 
	C206.425583,279.655090 204.687637,273.889587 201.923340,267.928589 
	C206.215027,265.960510 210.557587,266.081238 214.720261,265.401520 
	C219.470200,264.625977 224.233597,263.932983 228.984894,263.165466 
	C230.496689,262.921295 231.965897,262.664764 233.357742,264.325195 
z"/>
<path fill="#000000" opacity="1.000000" stroke="none" 
	d="
M139.959351,280.264984 
	C133.059387,281.256226 126.588341,282.204010 118.775749,283.348297 
	C125.940216,271.887909 134.225571,263.057556 141.825912,252.007889 
	C145.131271,258.158569 145.300308,263.850098 146.931885,269.040131 
	C147.127075,269.661011 147.083755,270.354401 147.174179,271.011017 
	C148.225861,278.648895 148.227051,278.648743 139.959351,280.264984 
z"/>
<path fill="#000000" opacity="1.000000" stroke="none" 
	d="
M100.314545,220.920486 
	C99.968895,222.174362 99.349762,222.839127 98.483437,222.843445 
	C87.543732,222.898178 76.592148,223.370728 65.789238,222.520004 
	C65.173141,220.418457 66.586411,220.168259 67.510040,219.662735 
	C76.269669,214.868179 85.079926,210.164948 93.797791,205.296066 
	C96.129517,203.993820 98.311844,203.502640 98.458321,206.749985 
	C98.669518,211.432236 100.760384,215.802231 100.314545,220.920486 
z"/>
</svg>